<svg width="34" height="42" viewBox="0 0 34 42" fill="none" xmlns="http://www.w3.org/2000/svg">
<path d="M17 29.3333C17.5903 29.3333 18.0851 29.1337 18.4844 28.7344C18.8837 28.3351 19.0834 27.8403 19.0834 27.25C19.0834 26.6597 18.8837 26.1649 18.4844 25.7656C18.0851 25.3663 17.5903 25.1667 17 25.1667C16.4098 25.1667 15.915 25.3663 15.5157 25.7656C15.1164 26.1649 14.9167 26.6597 14.9167 27.25C14.9167 27.8403 15.1164 28.3351 15.5157 28.7344C15.915 29.1337 16.4098 29.3333 17 29.3333ZM14.9167 21H19.0834V10.5833H14.9167V21ZM17 41.8333C12.1737 40.6181 8.18928 37.849 5.04692 33.526C1.90455 29.2031 0.333374 24.4028 0.333374 19.125V6.41667L17 0.166668L33.6667 6.41667V19.125C33.6667 24.4028 32.0955 29.2031 28.9532 33.526C25.8108 37.849 21.8264 40.6181 17 41.8333ZM17 37.4583C20.6112 36.3125 23.5973 34.0208 25.9584 30.5833C28.3195 27.1458 29.5 23.3264 29.5 19.125V9.28125L17 4.59375L4.50004 9.28125V19.125C4.50004 23.3264 5.6806 27.1458 8.04171 30.5833C10.4028 34.0208 13.3889 36.3125 17 37.4583Z" fill="#34E537"/>
</svg>
