<svg width="32" height="42" viewBox="0 0 32 42" fill="none" xmlns="http://www.w3.org/2000/svg">
<path d="M16 41.8333C14.8542 41.8333 13.8733 41.4254 13.0573 40.6094C12.2413 39.7934 11.8333 38.8125 11.8333 37.6667H20.1667C20.1667 38.8125 19.7587 39.7934 18.9427 40.6094C18.1267 41.4254 17.1458 41.8333 16 41.8333ZM7.66667 35.5833V31.4167H24.3333V35.5833H7.66667ZM8.1875 29.3333C5.79167 27.9097 3.89062 26 2.48438 23.6042C1.07812 21.2083 0.375 18.6042 0.375 15.7917C0.375 11.4514 1.8941 7.76216 4.93229 4.72396C7.97049 1.68577 11.6597 0.166672 16 0.166672C20.3403 0.166672 24.0295 1.68577 27.0677 4.72396C30.1059 7.76216 31.625 11.4514 31.625 15.7917C31.625 18.6042 30.9219 21.2083 29.5156 23.6042C28.1094 26 26.2083 27.9097 23.8125 29.3333H8.1875ZM9.4375 25.1667H22.5625C24.125 24.0556 25.3316 22.684 26.1823 21.0521C27.033 19.4201 27.4583 17.6667 27.4583 15.7917C27.4583 12.5972 26.3472 9.88889 24.125 7.66667C21.9028 5.44445 19.1944 4.33334 16 4.33334C12.8056 4.33334 10.0972 5.44445 7.875 7.66667C5.65278 9.88889 4.54167 12.5972 4.54167 15.7917C4.54167 17.6667 4.96701 19.4201 5.81771 21.0521C6.6684 22.684 7.875 24.0556 9.4375 25.1667Z" fill="#34E537"/>
</svg>
