<svg width="34" height="42" viewBox="0 0 34 42" fill="none" xmlns="http://www.w3.org/2000/svg">
<path d="M17 41.8333C12.1737 40.618 8.18928 37.8489 5.04692 33.526C1.90455 29.2031 0.333374 24.4028 0.333374 19.125V6.41666L17 0.166656L33.6667 6.41666V19.125C33.6667 24.4028 32.0955 29.2031 28.9532 33.526C25.8108 37.8489 21.8264 40.618 17 41.8333ZM17 37.4583C20.3681 36.4167 23.1806 34.3594 25.4375 31.2864C27.6945 28.2135 29.0139 24.7847 29.3959 21H17V4.59374L4.50004 9.28124V20.0625C4.50004 20.3055 4.53476 20.618 4.60421 21H17V37.4583Z" fill="#34E537"/>
</svg>
