<svg width="21" height="21" viewBox="0 0 21 21" fill="none" xmlns="http://www.w3.org/2000/svg">
<g clip-path="url(#clip0_93_972)">
<path d="M10.5 5.25C9.80381 5.25 9.13613 5.52656 8.64384 6.01884C8.15156 6.51113 7.875 7.17881 7.875 7.875V18.375C7.875 19.0712 8.15156 19.7389 8.64384 20.2312C9.13613 20.7234 9.80381 21 10.5 21C11.1962 21 11.8639 20.7234 12.3562 20.2312C12.8484 19.7389 13.125 19.0712 13.125 18.375V7.875C13.125 7.17881 12.8484 6.51113 12.3562 6.01884C11.8639 5.52656 11.1962 5.25 10.5 5.25ZM11.375 18.375C11.375 18.6071 11.2828 18.8296 11.1187 18.9937C10.9546 19.1578 10.7321 19.25 10.5 19.25C10.2679 19.25 10.0454 19.1578 9.88128 18.9937C9.71719 18.8296 9.625 18.6071 9.625 18.375V7.875C9.625 7.64294 9.71719 7.42038 9.88128 7.25628C10.0454 7.09219 10.2679 7 10.5 7C10.7321 7 10.9546 7.09219 11.1187 7.25628C11.2828 7.42038 11.375 7.64294 11.375 7.875V18.375Z" fill="#34E537"/>
<path d="M18.375 0C17.6788 0 17.0111 0.276562 16.5188 0.768845C16.0266 1.26113 15.75 1.92881 15.75 2.625V18.375C15.75 19.0712 16.0266 19.7389 16.5188 20.2312C17.0111 20.7234 17.6788 21 18.375 21C19.0712 21 19.7389 20.7234 20.2312 20.2312C20.7234 19.7389 21 19.0712 21 18.375V2.625C21 1.92881 20.7234 1.26113 20.2312 0.768845C19.7389 0.276562 19.0712 0 18.375 0ZM19.25 18.375C19.25 18.6071 19.1578 18.8296 18.9937 18.9937C18.8296 19.1578 18.6071 19.25 18.375 19.25C18.1429 19.25 17.9204 19.1578 17.7563 18.9937C17.5922 18.8296 17.5 18.6071 17.5 18.375V2.625C17.5 2.39294 17.5922 2.17038 17.7563 2.00628C17.9204 1.84219 18.1429 1.75 18.375 1.75C18.6071 1.75 18.8296 1.84219 18.9937 2.00628C19.1578 2.17038 19.25 2.39294 19.25 2.625V18.375Z" fill="#34E537"/>
<path d="M2.625 10.5C1.92881 10.5 1.26113 10.7766 0.768845 11.2688C0.276562 11.7611 0 12.4288 0 13.125L0 18.375C0 19.0712 0.276562 19.7389 0.768845 20.2312C1.26113 20.7234 1.92881 21 2.625 21C3.32119 21 3.98887 20.7234 4.48116 20.2312C4.97344 19.7389 5.25 19.0712 5.25 18.375V13.125C5.25 12.4288 4.97344 11.7611 4.48116 11.2688C3.98887 10.7766 3.32119 10.5 2.625 10.5Z" fill="#34E537"/>
</g>
<defs>
<clipPath id="clip0_93_972">
<rect width="21" height="21" fill="white"/>
</clipPath>
</defs>
</svg>
