<svg width="21" height="21" viewBox="0 0 21 21" fill="none" xmlns="http://www.w3.org/2000/svg">
<g clip-path="url(#clip0_93_984)">
<path d="M14.6762 2.53748C14.0225 1.98273 13.3374 1.39998 12.64 0.766476C12.3224 0.476746 11.945 0.260347 11.5345 0.132582C11.124 0.00481716 10.6904 -0.031192 10.2644 0.0271012C9.85009 0.0812919 9.45271 0.225739 9.10029 0.450251C8.74787 0.674763 8.44901 0.973872 8.2248 1.32648C7.39356 2.69196 6.76682 4.17183 6.36455 5.71898C6.17351 5.46496 5.92856 5.25645 5.6473 5.10843C5.36604 4.96041 5.05548 4.87656 4.73794 4.86292C4.4204 4.84928 4.10379 4.90619 3.81088 5.02955C3.51796 5.15291 3.25603 5.33965 3.04392 5.57635C1.56068 7.09321 0.739418 9.13631 0.760171 11.2577C0.74045 13.4107 1.4416 15.5084 2.75199 17.2168C4.06237 18.9252 5.90665 20.146 7.99117 20.685C8.80826 20.8928 9.64794 20.9986 10.491 21C11.7704 21.0017 13.0376 20.7511 14.2201 20.2626C15.4025 19.7741 16.477 19.0572 17.3822 18.153C18.2873 17.2488 19.0052 16.175 19.4949 14.993C19.9846 13.811 20.2364 12.5441 20.2359 11.2647C20.2359 7.26248 17.6599 5.07498 14.6762 2.53748ZM14.8669 16.8752C14.6166 17.0678 14.3535 17.2433 14.0794 17.4002C14.3305 16.8759 14.462 16.3024 14.4644 15.7211C14.4644 14.035 13.2893 12.0776 11.8394 10.3617C11.6731 10.1671 11.4665 10.0108 11.234 9.90359C11.0014 9.79642 10.7484 9.74092 10.4924 9.74092C10.2363 9.74092 9.98329 9.79642 9.75074 9.90359C9.51819 10.0108 9.31164 10.1671 9.1453 10.3617C7.0873 12.775 5.79842 15.3842 6.9998 17.5C5.89495 16.8786 4.97697 15.9722 4.34153 14.8754C3.70609 13.7786 3.37643 12.5314 3.38692 11.2639C3.35978 10.0224 3.77717 8.81214 4.5638 7.85135C4.68746 8.05435 4.82017 8.25064 4.96192 8.44023C5.19602 8.75631 5.51761 8.99687 5.88695 9.13216C6.25628 9.26745 6.65716 9.29155 7.04004 9.20148C7.42844 9.11487 7.78362 8.91808 8.06298 8.63468C8.34234 8.35129 8.53402 7.99333 8.61505 7.60373C8.93842 5.88637 9.55749 4.23819 10.4447 2.7326C10.4629 2.7027 10.4877 2.67743 10.5173 2.65876C10.547 2.64008 10.5805 2.62852 10.6153 2.62498C10.6617 2.61893 10.7088 2.62309 10.7533 2.63714C10.7979 2.6512 10.8389 2.67482 10.8734 2.70635C11.5944 3.36173 12.3023 3.96373 12.9778 4.53598C15.7682 6.90548 17.6109 8.47348 17.6109 11.2612C17.6145 12.345 17.3689 13.415 16.8931 14.3888C16.4173 15.3625 15.7241 16.2138 14.8669 16.877V16.8752Z" fill="#E90000"/>
</g>
<defs>
<clipPath id="clip0_93_984">
<rect width="21" height="21" fill="white"/>
</clipPath>
</defs>
</svg>
